<?xml version="1.0" encoding="utf-8"?>
<!-- Generator: Adobe Illustrator 23.0.1, SVG Export Plug-In . SVG Version: 6.00 Build 0)  -->
<svg version="1.1" id="Layer_1" xmlns="http://www.w3.org/2000/svg" xmlns:xlink="http://www.w3.org/1999/xlink" x="0px" y="0px"
	 viewBox="0 0 264 266" style="enable-background:new 0 0 264 266;" xml:space="preserve">
<style type="text/css">
	.st0{fill:#FFFFFF;}
	.st1{fill:#333333;}
</style>
<title>Catch</title>
<g>
	<rect x="29.9" y="63.2" class="st0" width="200" height="100"/>
</g>
<g>
	<path class="st1" d="M105.6,138.8c-1.3,0-2.7-0.2-4-0.1c-2.8,0.2-5.5,0.2-8.1,1.4c-1.7,0.7-2.8,2.4-2.6,4c0.1,1.4,1.2,2.7,3,3.2
		c0.8,0.2,1.7,0.4,2.1,0.5c5.5-0.3,9.2-2.5,10.5-7.9C106.7,139.1,106.5,138.9,105.6,138.8z"/>
	<path class="st1" d="M132,1.2C59.2,1.2,0.2,60.2,0.2,133s59,131.8,131.8,131.8s131.8-59,131.8-131.8S204.8,1.2,132,1.2z
		 M77.4,143.4c-1.8,5.5-5.5,9.3-10.9,11.3c-10.4,3.7-22.3-0.8-25.6-12.6c-1.9-7-0.9-13.5,3.7-19.2c4.2-5.2,9.9-7,16.5-6.6
		c4.2,0.3,7.9,1.7,11.1,4.4c2.5,2.1,4.2,4.8,5.2,8.2c-2.1,0.6-4.1,1.3-6.1,1.8c-2,0.6-2,0.5-3.1-1.3c-2.3-3.7-5.8-5-9.9-4.6
		c-4,0.5-6.7,2.8-8,6.6c-1.5,4.7-1.1,9.2,2.4,12.9c4.9,5,13.3,3.3,16-3.1c0.7-1.5,0.7-1.5,2.2-1c1.9,0.6,3.9,1.2,5.8,1.8
		C77.4,142.2,77.7,142.5,77.4,143.4z M114.1,154.9c-2.1-0.1-4.3-0.1-6.4,0c-0.9,0-1.2-0.3-1.2-1.1c0.1-1.3,0.1-2.5-0.1-3.9
		c-0.2,0.3-0.5,0.5-0.7,0.8c-2.4,3.5-5.9,5-10.1,5.2c-3.4,0.2-6.5-0.4-9.4-2.3c-2.7-1.8-4.4-4.3-4.6-7.7c-0.2-2.7,0.1-5.2,1.4-7.5
		c1.6-2.7,4-4.2,6.9-5.2c2.8-1,5.7-1.4,8.7-1.5c2.3,0,4.5,0,6.8,0c0.7,0,1-0.2,0.9-1c-0.1-3.3-2.4-5.6-5.8-5.9
		c-3.9-0.3-7.1,1.2-9.7,3.9c-0.7,0.7-1.2,0.8-2,0.2c-1.9-1.5-3.8-2.8-5.8-4.3c1.8-3,4.2-5.1,7.3-6.5c5.8-2.6,11.7-2.7,17.6-0.3
		c3.9,1.6,6.1,4.9,6.9,9c0.4,1.9,0.5,3.8,0.5,5.7c0.1,7,0,14,0,21C115.5,154.6,115.2,155,114.1,154.9z M144.6,124.5
		c0,0.9-0.2,1.3-1.2,1.3c-2.8-0.1-5.6,0-8.4,0c-0.8,0-1.1,0.2-1.1,1.1c0,4.6,0,9.2,0,13.8c0.1,3.9,2.2,6,6.1,6.3
		c0.9,0.1,1.9,0.1,2.8,0.1c0.6,0,0.9,0.1,0.9,0.8c0,2.1,0,4.2,0,6.3c0,0.3-0.4,0.8-0.6,0.8c-4.1,0.1-8.2,0.4-12.2-1
		c-3.2-1.2-5.3-3.5-5.8-6.9c-0.4-2.4-0.4-4.8-0.5-7.2c-0.1-4.3,0-8.5,0-12.8c0-1-0.3-1.4-1.3-1.3c-1.4,0.1-2.7,0-4.1,0
		c-0.6,0-0.9-0.2-0.9-0.9c0-2.2,0-4.5,0-6.7c0-0.7,0.3-0.9,0.9-0.9c1.5,0,3-0.1,4.5,0c1.1,0.1,1.3-0.4,1.3-1.4c-0.1-1.9,0-3.8,0-5.6
		c0-0.7,0.2-1.2,0.9-1.5c2.4-1.1,4.7-2.2,7.1-3.4c0.2-0.1,0.5-0.1,1-0.3c0,2.1,0,4,0,5.9c0,1.7,0,3.4,0,5.2c0,0.8,0.2,1.1,1.1,1.1
		c2.8,0,5.6,0,8.4,0c0.9,0,1.3,0.2,1.3,1.2C144.5,120.5,144.5,122.5,144.6,124.5z M184.6,143.3c-1.8,5.6-5.5,9.4-11,11.3
		c-9.5,3.3-20.6-0.1-24.7-10.4c-3-7.6-2.2-14.9,3-21.4c3.9-4.9,9.3-6.8,15.4-6.7c4.5,0.1,8.6,1.5,12.1,4.5c2.5,2.2,4.2,4.8,5.2,8.2
		c-1.5,0.5-2.9,0.9-4.3,1.4c-1,0.3-2,0.5-2.9,0.9c-0.8,0.3-1.2,0.1-1.6-0.7c-2.7-6.3-11.8-7.6-16.4-2.4c-2.3,2.6-3.1,5.8-2.7,9.3
		c0.3,2.6,1.1,5.1,3,7.1c5.1,5.1,13.5,3.4,16.2-3.3c0.4-1.1,0.9-1.2,1.9-0.9c2,0.7,4.1,1.3,6.1,1.9
		C184.7,142.2,184.9,142.6,184.6,143.3z M222.7,154.9c-2.3-0.1-4.5-0.1-6.8,0c-1.2,0-1.5-0.4-1.5-1.5c0-6.4,0-12.7,0-19.1
		c0-1.3-0.2-2.7-0.5-4c-1-5.1-5.7-5.9-9.3-4.3c-3.4,1.5-4.7,4.5-5.1,7.8c-0.4,3.1-0.3,6.3-0.4,9.5c-0.1,3.4,0,6.8,0,10.2
		c0,0.4,0,0.8,0,1.4c-3.2,0-6.1,0-9.2,0c0-17.5,0-35.1,0-52.7c2.1,0,4.2,0,6.3,0c3.1,0,2.8-0.5,2.8,2.7c0,5.5,0,11.1,0,16.6
		c0,0.4,0.1,0.7,0.1,1.4c0.7-0.9,1.1-1.5,1.6-2.1c3-3.3,6.8-4.6,11.2-4.3c4.1,0.3,7.3,2,9.4,5.4c1.5,2.3,2.3,5,2.4,7.7
		c0.1,8,0.2,16.1,0.2,24.1C224,154.5,223.7,154.9,222.7,154.9z"/>
</g>
</svg>
